# xmcd
#
# Track frame offsets:
#        150
#        9580
#        28387
#        41430
#        52412
#        62890
#        83755
#        94307
#        108447
#        123132
#        134455
#        144930
#
# Disc length: 2107 seconds
#
# Revision: 0
# Processed by: cddbd v1.5.1PL0 Copyright (c) Steve Scherf et al.
# Submitted via: ExactAudioCopy v0.95a4
#
DISCID=a808390c
DTITLE=Disney's Wedding Collection - PROPOSE
DYEAR=1992
DGENRE=Other
TTITLE0=It's A Small World
TTITLE1=Beauty And The Beast
TTITLE2=Some Day My Prince Will Come
TTITLE3=Someone's Wait NG For You
TTITLE4=A Dream Is A Wish Your Heart Makes
TTITLE5=When You Wish Upon A Star
TTITLE6=It's A Small World
TTITLE7=LA LA LU
TTITLE8=It's Not Easy
TTITLE9=Zip-A-Dee-Doo-Dah
TTITLE10=Part Of Your World
TTITLE11=Love Is A Song
EXTD=
EXTT0=
EXTT1=
EXTT2=
EXTT3=
EXTT4=
EXTT5=
EXTT6=
EXTT7=
EXTT8=
EXTT9=
EXTT10=
EXTT11=
PLAYORDER=
